# Blender 5.2.2 LTS
# www.blender.org
mtllib GiantFir_C.mtl
o GiantFir_C
v 1.532316 -0.250000 0.000000
v 1.266280 -0.250000 -0.920006
v 0.471290 -0.250000 -1.450481
v -0.473816 -0.250000 -1.458255
v -1.241376 -0.250000 -0.901912
v -1.508533 -0.250000 -0.000000
v -1.236712 -0.250000 0.898524
v -0.476706 -0.250000 1.467150
v 0.479016 -0.250000 1.474261
v 1.214816 -0.250000 0.882615
v 1.369544 0.350000 0.000000
v 1.099884 0.350000 -0.795298
v 0.437617 0.350000 -1.330690
v -0.425727 0.350000 -1.326412
v -1.083911 0.350000 -0.791322
v -1.409366 0.350000 -0.000000
v -1.135348 0.350000 0.828693
v -0.424884 0.350000 1.323817
v 0.433486 0.350000 1.317974
v 1.103618 0.350000 0.798011
v 1.154302 1.000000 0.000000
v 0.962130 1.000000 -0.688131
v 0.367867 1.000000 -1.086014
v -0.340663 1.000000 -1.094619
v -0.917433 1.000000 -0.677452
v -1.126591 1.000000 -0.000000
v -0.927918 1.000000 0.685070
v -0.345185 1.000000 1.108535
v 0.381991 1.000000 1.129482
v 0.961693 1.000000 0.687813
v 1.042512 2.200000 0.000000
v 0.844014 2.200000 -0.589236
v 0.345300 2.200000 -0.961159
v -0.276122 2.200000 -0.951381
v -0.769028 2.200000 -0.582707
v -0.994425 2.200000 -0.000000
v -0.798124 2.200000 0.603847
v -0.282053 2.200000 0.969633
v 0.346002 2.200000 0.963322
v 0.836533 2.200000 0.583801
v 1.004267 5.000000 0.000000
v 0.829055 5.000000 -0.547853
v 0.359839 5.000000 -0.876643
v -0.219970 5.000000 -0.907824
v -0.683299 5.000000 -0.550936
v -0.883324 5.000000 -0.000000
v -0.682770 5.000000 0.550552
v -0.222761 5.000000 0.916413
v 0.371149 5.000000 0.911453
v 0.818062 5.000000 0.539866
v 0.974410 9.600000 0.000000
v 0.839694 9.600000 -0.505452
v 0.403999 9.600000 -0.800196
v -0.122644 9.600000 -0.820646
v -0.534214 9.600000 -0.492751
v -0.680651 9.600000 -0.000000
v -0.542123 9.600000 0.498497
v -0.120016 9.600000 0.812558
v 0.401393 9.600000 0.792173
v 0.811638 9.600000 0.485067
v 0.932085 17.000000 0.000000
v 0.820215 17.000000 -0.410652
v 0.468719 17.000000 -0.657760
v 0.048033 17.000000 -0.636978
v -0.290392 17.000000 -0.396251
v -0.414180 17.000000 -0.000000
v -0.285241 17.000000 0.392508
v 0.040870 17.000000 0.659025
v 0.462596 17.000000 0.638916
v 0.809035 17.000000 0.402530
v 0.864030 28.000000 0.000000
v 0.774604 28.000000 -0.257635
v 0.559169 28.000000 -0.428320
v 0.284964 28.000000 -0.415598
v 0.057238 28.000000 -0.263562
v -0.016663 28.000000 -0.000000
v 0.061253 28.000000 0.260645
v 0.284401 28.000000 0.417332
v 0.555991 28.000000 0.418537
v 0.788655 28.000000 0.267844
v 0.240000 21.157143 0.000000
v -2.110132 15.376251 -5.961391
v -0.738546 16.928286 -2.086487
v -4.951988 15.150969 -2.917846
v -1.733196 16.928286 -1.021246
v -5.955746 15.414884 0.995822
v -2.084511 16.928286 0.348538
v -4.187315 15.375365 4.901375
v -1.465560 16.928286 1.715481
v -0.049519 15.179559 5.587765
v -0.017332 16.928286 1.955718
v 3.606600 15.346287 4.376360
v 1.262310 16.928286 1.531726
v 5.280800 15.418459 0.979477
v 1.848280 16.928286 0.342817
v 5.195566 15.364945 -2.938583
v 1.818448 16.928286 -1.028504
v 2.098782 15.319903 -5.611134
v 0.734574 16.928286 -1.963897
v 0.280850 23.880476 0.000000
v 4.677262 17.972233 1.228062
v 1.637042 19.651619 0.429822
v 4.708216 18.109344 -2.224406
v 1.647876 19.651619 -0.778542
v 1.887908 17.855385 -4.102433
v 0.660768 19.651619 -1.435852
v -1.360573 18.086008 -4.977347
v -0.476200 19.651619 -1.742072
v -3.740724 17.914536 -2.591313
v -1.309253 19.651619 -0.906959
v -5.256449 18.104527 0.486560
v -1.839757 19.651619 0.170296
v -3.720561 17.864567 3.758217
v -1.302197 19.651619 1.315376
v -0.406756 18.025824 4.935315
v -0.142364 19.651619 1.727360
v 2.580665 18.159790 3.646357
v 0.903233 19.651619 1.276225
v 0.321700 26.603809 0.000000
v 0.339344 20.806723 -4.650535
v 0.118770 22.374952 -1.627687
v -2.791831 20.687904 -3.867186
v -0.977141 22.374952 -1.353515
v -4.163816 20.835264 -1.051552
v -1.457336 22.374952 -0.368043
v -4.209874 20.872595 2.037544
v -1.473456 22.374952 0.713140
v -1.734754 20.700888 3.864798
v -0.607164 22.374952 1.352679
v 1.307816 20.681660 4.613551
v 0.457736 22.374952 1.614743
v 3.543259 20.575590 2.405594
v 1.240141 22.374952 0.841958
v 4.192627 20.890865 -0.427837
v 1.467420 22.374952 -0.149743
v 2.977444 20.740669 -3.064618
v 1.042106 22.374952 -1.072616
v 0.362550 29.327143 0.000000
v 1.394693 23.419741 -2.791384
v 0.488143 25.098286 -0.976985
v -0.690506 23.493250 -2.886960
v -0.241677 25.098286 -1.010436
v -2.775633 23.276827 -2.057509
v -0.971472 25.098286 -0.720128
v -3.299095 23.378073 0.198970
v -1.154683 25.098286 0.069640
v -2.365630 23.570879 2.241085
v -0.827971 25.098286 0.784380
v -0.331482 23.613737 2.887580
v -0.116019 25.098286 1.010653
v 1.911341 23.374660 2.893054
v 0.668969 25.098286 1.012569
v 3.356081 23.612558 0.997216
v 1.174628 25.098286 0.349026
v 3.019885 23.451218 -1.310036
v 1.056960 25.098286 -0.458513
v 0.403400 32.050476 0.000000
v -1.298941 26.316992 -2.810441
v -0.454629 27.821619 -0.983654
v -2.570656 26.085381 -1.209351
v -0.899729 27.821619 -0.423273
v -2.939329 26.085352 0.776913
v -1.028765 27.821619 0.271919
v -1.688505 26.065689 2.394106
v -0.590977 27.821619 0.837937
v 0.255399 26.220192 3.037890
v 0.089390 27.821619 1.063262
v 2.057171 26.028040 2.071177
v 0.720010 27.821619 0.724912
v 3.011473 26.197330 0.273768
v 1.054016 27.821619 0.095819
v 2.445652 26.041119 -1.700128
v 0.855978 27.821619 -0.595045
v 0.748530 26.124598 -2.756116
v 0.261986 27.821619 -0.964641
v 0.444250 34.773811 0.000000
v -1.716248 29.038595 0.981489
v -0.600687 30.544952 0.343521
v -0.687921 28.719004 1.866135
v -0.240772 30.544952 0.653147
v 0.704008 28.811794 1.959276
v 0.246403 30.544952 0.685747
v 1.634418 28.809402 0.952614
v 0.572046 30.544952 0.333415
v 1.937788 28.912483 -0.333474
v 0.678226 30.544952 -0.116716
v 1.334425 29.037342 -1.577090
v 0.467049 30.544952 -0.551982
v 0.008355 29.056240 -2.031756
v 0.002924 30.544952 -0.711115
v -1.262724 28.898333 -1.517485
v -0.441953 30.544952 -0.531120
v -1.801411 28.822250 -0.325281
v -0.630494 30.544952 -0.113848
v 0.485100 37.497143 0.000000
v -0.989370 31.700459 0.866774
v -0.346280 33.268284 0.303371
v -0.167079 31.684639 1.081907
v -0.058478 33.268284 0.378667
v 0.651323 31.719099 1.074565
v 0.227963 33.268284 0.376098
v 1.072827 31.472998 0.364778
v 0.375489 33.268284 0.127672
v 1.167236 31.635324 -0.453237
v 0.408533 33.268284 -0.158633
v 0.629892 31.675564 -1.146773
v 0.220462 33.268284 -0.401371
v -0.243942 31.720524 -1.229614
v -0.085380 33.268284 -0.430365
v -0.932795 31.507904 -0.749419
v -0.326478 33.268284 -0.262297
v -1.313538 31.481905 0.028000
v -0.459738 33.268284 0.009800
vn 0.9161 0.2810 -0.2861
vn 0.5710 0.2542 -0.7806
vn 0.0019 0.2052 -0.9787
vn -0.5876 0.2557 -0.7676
vn -0.9194 0.2263 -0.3218
vn -0.9389 0.1742 0.2967
vn -0.5726 0.2137 0.7915
vn -0.0007 0.2423 0.9702
vn 0.6033 0.2320 0.7630
vn 0.9189 0.2323 0.3190
vn 0.9185 0.2730 -0.2860
vn 0.5691 0.2982 -0.7663
vn 0.0026 0.3441 -0.9389
vn -0.5801 0.3123 -0.7523
vn -0.8856 0.3343 -0.3224
vn -0.8884 0.3657 0.2774
vn -0.5461 0.3329 0.7688
vn -0.0091 0.2968 0.9549
vn 0.5883 0.2632 0.7646
vn 0.9183 0.2763 0.2834
vn 0.9512 0.1031 -0.2909
vn 0.5724 0.1093 -0.8127
vn -0.0009 0.1110 -0.9938
vn -0.5869 0.1313 -0.7989
vn -0.9383 0.1225 -0.3235
vn -0.9499 0.1135 0.2911
vn -0.5791 0.1205 0.8063
vn -0.0107 0.1262 0.9919
vn 0.6037 0.1291 0.7867
vn 0.9488 0.1066 0.2974
vn 0.9499 0.0113 -0.3122
vn 0.5863 0.0183 -0.8099
vn 0.0178 0.0226 -0.9996
vn -0.6043 0.0260 -0.7964
vn -0.9357 0.0349 -0.3511
vn -0.9449 0.0413 0.3248
vn -0.5994 0.0339 0.7997
vn 0.0092 0.0186 0.9998
vn 0.6252 0.0126 0.7803
vn 0.9441 0.0121 0.3295
vn 0.9593 0.0033 -0.2823
vn 0.5674 0.0073 -0.8234
vn 0.0466 0.0170 -0.9988
vn -0.6161 0.0289 -0.7871
vn -0.9484 0.0383 -0.3148
vn -0.9509 0.0372 0.3073
vn -0.6102 0.0296 0.7917
vn 0.0227 0.0239 0.9995
vn 0.6207 0.0132 0.7839
vn 0.9466 0.0057 0.3223
vn 0.9656 0.0057 -0.2599
vn 0.5670 0.0115 -0.8237
vn -0.0003 0.0220 -0.9998
vn -0.6038 0.0320 -0.7965
vn -0.9562 0.0349 -0.2906
vn -0.9572 0.0359 0.2873
vn -0.6127 0.0311 0.7897
vn 0.0429 0.0201 0.9989
vn 0.5833 0.0106 0.8122
vn 0.9519 0.0046 0.3065
vn 0.9575 0.0070 -0.2884
vn 0.5932 0.0128 -0.8050
vn -0.0481 0.0212 -0.9986
vn -0.5698 0.0284 -0.8213
vn -0.9574 0.0342 -0.2868
vn -0.9528 0.0340 0.3017
vn -0.6101 0.0298 0.7918
vn 0.0273 0.0206 0.9994
vn 0.5557 0.0116 0.8313
vn 0.9589 0.0056 0.2838
vn -0.5485 0.6979 -0.4605
vn 0.3314 -0.9071 0.2597
vn -0.6818 0.6971 -0.2219
vn 0.3951 -0.9069 0.1466
vn -0.6250 0.7247 0.2903
vn 0.3382 -0.9273 -0.1601
vn -0.0881 0.6825 0.7256
vn 0.0384 -0.9054 -0.4229
vn 0.2082 0.6625 0.7195
vn -0.1099 -0.8993 -0.4233
vn 0.6747 0.6518 0.3464
vn -0.3684 -0.9088 -0.1959
vn 0.7532 0.6573 -0.0254
vn -0.4085 -0.9126 0.0181
vn 0.4704 0.6848 -0.5566
vn -0.2545 -0.9173 0.3064
vn 0.0683 0.7026 -0.7083
vn -0.0413 -0.9211 0.3871
vn 0.7988 0.6008 0.0310
vn -0.4693 -0.8825 -0.0302
vn 0.4122 0.5853 -0.6982
vn -0.2408 -0.8610 0.4479
vn 0.2488 0.5896 -0.7684
vn -0.1744 -0.8599 0.4797
vn -0.5773 0.6200 -0.5314
vn 0.3756 -0.8666 0.3286
vn -0.6846 0.6247 -0.3757
vn 0.4287 -0.8679 0.2508
vn -0.6588 0.6617 0.3578
vn 0.3964 -0.8877 -0.2343
vn -0.2853 0.6371 0.7160
vn 0.1882 -0.8777 -0.4407
vn 0.2957 0.5952 0.7472
vn -0.1646 -0.8782 -0.4491
vn 0.6373 0.5798 0.5076
vn -0.3922 -0.8730 -0.2899
vn -0.2139 0.6109 -0.7623
vn 0.1423 -0.8706 0.4709
vn -0.6985 0.6111 -0.3724
vn 0.4404 -0.8629 0.2480
vn -0.7876 0.6159 -0.0192
vn 0.4892 -0.8721 0.0151
vn -0.4509 0.5935 0.6666
vn 0.2756 -0.8582 -0.4330
vn -0.1906 0.5833 0.7895
vn 0.1223 -0.8496 -0.5130
vn 0.5992 0.5517 0.5801
vn -0.3953 -0.8406 -0.3703
vn 0.8111 0.5312 0.2450
vn -0.5037 -0.8438 -0.1850
vn 0.7531 0.5386 -0.3778
vn -0.4538 -0.8567 0.2453
vn 0.4358 0.5640 -0.7014
vn -0.2749 -0.8596 0.4308
vn 0.0565 0.4346 -0.8988
vn -0.0498 -0.7493 0.6604
vn -0.3685 0.4649 -0.8050
vn 0.2936 -0.7495 0.5933
vn -0.8347 0.5065 -0.2164
vn 0.6284 -0.7589 0.1710
vn -0.8023 0.5045 0.3191
vn 0.5918 -0.7766 -0.2162
vn -0.2777 0.4600 0.8434
vn 0.2016 -0.7772 -0.5961
vn 0.0454 0.4462 0.8938
vn -0.0590 -0.7671 -0.6388
vn 0.6793 0.4562 0.5749
vn -0.4428 -0.7966 -0.4115
vn 0.8856 0.4361 -0.1595
vn -0.5941 -0.7942 0.1277
vn 0.6056 0.4240 -0.6734
vn -0.4312 -0.7608 0.4850
vn -0.7249 0.4645 -0.5086
vn 0.5654 -0.7372 0.3701
vn -0.8697 0.4664 -0.1614
vn 0.6853 -0.7171 0.1272
vn -0.6986 0.4626 0.5459
vn 0.5446 -0.7215 -0.4277
vn -0.3132 0.4451 0.8389
vn 0.2522 -0.7336 -0.6310
vn 0.4661 0.3995 0.7894
vn -0.3677 -0.7284 -0.5782
vn 0.8021 0.3790 0.4615
vn -0.5855 -0.7256 -0.3615
vn 0.8810 0.3794 -0.2826
vn -0.6428 -0.7316 0.2272
vn 0.5004 0.3889 -0.7735
vn -0.3877 -0.7155 0.5812
vn 0.0638 0.4239 -0.9035
vn -0.0694 -0.7437 0.6649
vn -0.5511 0.3382 0.7628
vn 0.4471 -0.5854 -0.6764
vn -0.0839 0.3078 0.9477
vn 0.0828 -0.5706 -0.8171
vn 0.7119 0.2471 0.6574
vn -0.6044 -0.5691 -0.5576
vn 0.9437 0.2268 0.2408
vn -0.7906 -0.5714 -0.2204
vn 0.8812 0.2475 -0.4027
vn -0.7271 -0.6140 0.3071
vn 0.3135 0.2966 -0.9021
vn -0.2550 -0.6410 0.7239
vn -0.3889 0.3347 -0.8584
vn 0.3442 -0.6129 0.7113
vn -0.8632 0.3458 -0.3679
vn 0.7624 -0.5637 0.3178
vn -0.9357 0.3529 0.0026
vn 0.8171 -0.5763 0.0174
vn -0.2441 0.2039 0.9481
vn 0.2255 -0.4091 -0.8842
vn 0.0011 0.1829 0.9831
vn 0.0045 -0.4080 -0.9130
vn 0.8711 0.1139 0.4778
vn -0.8324 -0.3893 -0.3944
vn 0.9854 0.1043 0.1344
vn -0.9093 -0.3835 -0.1613
vn 0.7868 0.1381 -0.6016
vn -0.7207 -0.4350 0.5397
vn 0.1025 0.1947 -0.9755
vn -0.1013 -0.4456 0.8895
vn -0.6038 0.2381 -0.7607
vn 0.5830 -0.4080 0.7026
vn -0.8709 0.2585 -0.4179
vn 0.8293 -0.3938 0.3964
vn -0.9185 0.2760 0.2831
vn 0.8667 -0.4305 -0.2519
s 0
usemtl fir_bark
f 1//1 2//1 12//1 11//1
f 2//2 3//2 13//2 12//2
f 3//3 4//3 14//3 13//3
f 4//4 5//4 15//4 14//4
f 5//5 6//5 16//5 15//5
f 6//6 7//6 17//6 16//6
f 7//7 8//7 18//7 17//7
f 8//8 9//8 19//8 18//8
f 9//9 10//9 20//9 19//9
f 10//10 1//10 11//10 20//10
f 11//11 12//11 22//11 21//11
f 12//12 13//12 23//12 22//12
f 13//13 14//13 24//13 23//13
f 14//14 15//14 25//14 24//14
f 15//15 16//15 26//15 25//15
f 16//16 17//16 27//16 26//16
f 17//17 18//17 28//17 27//17
f 18//18 19//18 29//18 28//18
f 19//19 20//19 30//19 29//19
f 20//20 11//20 21//20 30//20
f 21//21 22//21 32//21 31//21
f 22//22 23//22 33//22 32//22
f 23//23 24//23 34//23 33//23
f 24//24 25//24 35//24 34//24
f 25//25 26//25 36//25 35//25
f 26//26 27//26 37//26 36//26
f 27//27 28//27 38//27 37//27
f 28//28 29//28 39//28 38//28
f 29//29 30//29 40//29 39//29
f 30//30 21//30 31//30 40//30
f 31//31 32//31 42//31 41//31
f 32//32 33//32 43//32 42//32
f 33//33 34//33 44//33 43//33
f 34//34 35//34 45//34 44//34
f 35//35 36//35 46//35 45//35
f 36//36 37//36 47//36 46//36
f 37//37 38//37 48//37 47//37
f 38//38 39//38 49//38 48//38
f 39//39 40//39 50//39 49//39
f 40//40 31//40 41//40 50//40
f 41//41 42//41 52//41 51//41
f 42//42 43//42 53//42 52//42
f 43//43 44//43 54//43 53//43
f 44//44 45//44 55//44 54//44
f 45//45 46//45 56//45 55//45
f 46//46 47//46 57//46 56//46
f 47//47 48//47 58//47 57//47
f 48//48 49//48 59//48 58//48
f 49//49 50//49 60//49 59//49
f 50//50 41//50 51//50 60//50
f 51//51 52//51 62//51 61//51
f 52//52 53//52 63//52 62//52
f 53//53 54//53 64//53 63//53
f 54//54 55//54 65//54 64//54
f 55//55 56//55 66//55 65//55
f 56//56 57//56 67//56 66//56
f 57//57 58//57 68//57 67//57
f 58//58 59//58 69//58 68//58
f 59//59 60//59 70//59 69//59
f 60//60 51//60 61//60 70//60
f 61//61 62//61 72//61 71//61
f 62//62 63//62 73//62 72//62
f 63//63 64//63 74//63 73//63
f 64//64 65//64 75//64 74//64
f 65//65 66//65 76//65 75//65
f 66//66 67//66 77//66 76//66
f 67//67 68//67 78//67 77//67
f 68//68 69//68 79//68 78//68
f 69//69 70//69 80//69 79//69
f 70//70 61//70 71//70 80//70
usemtl fir_needles
f 84//73 86//73 81//73
f 86//75 88//75 81//75
f 90//79 92//79 81//79
f 92//81 94//81 81//81
f 96//85 98//85 81//85
f 98//87 82//87 81//87
f 101//89 103//89 100//89
f 103//91 105//91 100//91
f 107//95 109//95 100//95
f 109//97 111//97 100//97
f 113//101 115//101 100//101
f 115//103 117//103 100//103
f 120//107 122//107 119//107
f 124//111 126//111 119//111
f 126//113 128//113 119//113
f 130//117 132//117 119//117
f 132//119 134//119 119//119
f 136//123 120//123 119//123
f 141//127 143//127 138//127
f 143//129 145//129 138//129
f 147//133 149//133 138//133
f 149//135 151//135 138//135
f 153//139 155//139 138//139
f 155//141 139//141 138//141
f 158//143 160//143 157//143
f 160//145 162//145 157//145
f 164//149 166//149 157//149
f 166//151 168//151 157//151
f 170//155 172//155 157//155
f 172//157 174//157 157//157
f 177//161 179//161 176//161
f 181//165 183//165 176//165
f 183//167 185//167 176//167
f 187//171 189//171 176//171
f 189//173 191//173 176//173
f 193//177 177//177 176//177
f 198//181 200//181 195//181
f 200//183 202//183 195//183
f 204//187 206//187 195//187
f 206//189 208//189 195//189
f 210//193 212//193 195//193
f 212//195 196//195 195//195
usemtl fir_needles_dark
f 82//71 84//71 81//71
f 84//72 82//72 83//72 85//72
f 86//74 84//74 85//74 87//74
f 88//76 86//76 87//76 89//76
f 88//77 90//77 81//77
f 90//78 88//78 89//78 91//78
f 92//80 90//80 91//80 93//80
f 94//82 92//82 93//82 95//82
f 94//83 96//83 81//83
f 96//84 94//84 95//84 97//84
f 98//86 96//86 97//86 99//86
f 82//88 98//88 99//88 83//88
f 103//90 101//90 102//90 104//90
f 105//92 103//92 104//92 106//92
f 105//93 107//93 100//93
f 107//94 105//94 106//94 108//94
f 109//96 107//96 108//96 110//96
f 111//98 109//98 110//98 112//98
f 111//99 113//99 100//99
f 113//100 111//100 112//100 114//100
f 115//102 113//102 114//102 116//102
f 117//104 115//104 116//104 118//104
f 117//105 101//105 100//105
f 101//106 117//106 118//106 102//106
f 122//108 120//108 121//108 123//108
f 122//109 124//109 119//109
f 124//110 122//110 123//110 125//110
f 126//112 124//112 125//112 127//112
f 128//114 126//114 127//114 129//114
f 128//115 130//115 119//115
f 130//116 128//116 129//116 131//116
f 132//118 130//118 131//118 133//118
f 134//120 132//120 133//120 135//120
f 134//121 136//121 119//121
f 136//122 134//122 135//122 137//122
f 120//124 136//124 137//124 121//124
f 139//125 141//125 138//125
f 141//126 139//126 140//126 142//126
f 143//128 141//128 142//128 144//128
f 145//130 143//130 144//130 146//130
f 145//131 147//131 138//131
f 147//132 145//132 146//132 148//132
f 149//134 147//134 148//134 150//134
f 151//136 149//136 150//136 152//136
f 151//137 153//137 138//137
f 153//138 151//138 152//138 154//138
f 155//140 153//140 154//140 156//140
f 139//142 155//142 156//142 140//142
f 160//144 158//144 159//144 161//144
f 162//146 160//146 161//146 163//146
f 162//147 164//147 157//147
f 164//148 162//148 163//148 165//148
f 166//150 164//150 165//150 167//150
f 168//152 166//152 167//152 169//152
f 168//153 170//153 157//153
f 170//154 168//154 169//154 171//154
f 172//156 170//156 171//156 173//156
f 174//158 172//158 173//158 175//158
f 174//159 158//159 157//159
f 158//160 174//160 175//160 159//160
f 179//162 177//162 178//162 180//162
f 179//163 181//163 176//163
f 181//164 179//164 180//164 182//164
f 183//166 181//166 182//166 184//166
f 185//168 183//168 184//168 186//168
f 185//169 187//169 176//169
f 187//170 185//170 186//170 188//170
f 189//172 187//172 188//172 190//172
f 191//174 189//174 190//174 192//174
f 191//175 193//175 176//175
f 193//176 191//176 192//176 194//176
f 177//178 193//178 194//178 178//178
f 196//179 198//179 195//179
f 198//180 196//180 197//180 199//180
f 200//182 198//182 199//182 201//182
f 202//184 200//184 201//184 203//184
f 202//185 204//185 195//185
f 204//186 202//186 203//186 205//186
f 206//188 204//188 205//188 207//188
f 208//190 206//190 207//190 209//190
f 208//191 210//191 195//191
f 210//192 208//192 209//192 211//192
f 212//194 210//194 211//194 213//194
f 196//196 212//196 213//196 197//196
