# Blender 5.2.2 LTS
# www.blender.org
mtllib GiantFir_A.mtl
o GiantFir_A
v 1.188136 -0.250000 0.000000
v 0.898399 -0.250000 -0.652725
v 0.368247 -0.250000 -1.133349
v -0.347575 -0.250000 -1.069726
v -0.938266 -0.250000 -0.681690
v -1.090542 -0.250000 -0.000000
v -0.975284 -0.250000 0.708585
v -0.341248 -0.250000 1.050253
v 0.361478 -0.250000 1.112514
v 0.926689 -0.250000 0.673279
v 1.082060 0.350000 0.000000
v 0.853284 0.350000 -0.616133
v 0.338104 0.350000 -1.024419
v -0.315526 0.350000 -0.987247
v -0.851963 0.350000 -0.622802
v -1.032586 0.350000 -0.000000
v -0.883260 0.350000 0.645540
v -0.313680 0.350000 0.981566
v 0.342518 0.350000 1.038003
v 0.846401 0.350000 0.611132
v 0.922538 1.000000 0.000000
v 0.759129 1.000000 -0.540641
v 0.303000 1.000000 -0.886373
v -0.262820 1.000000 -0.855043
v -0.717975 1.000000 -0.532537
v -0.909665 1.000000 -0.000000
v -0.734552 1.000000 0.544582
v -0.268679 1.000000 0.873074
v 0.307124 1.000000 0.899066
v 0.757509 1.000000 0.539464
v 0.856550 2.200000 0.000000
v 0.682100 2.200000 -0.471599
v 0.285993 2.200000 -0.778633
v -0.215553 2.200000 -0.764967
v -0.633739 2.200000 -0.484414
v -0.788847 2.200000 -0.000000
v -0.606393 2.200000 0.464547
v -0.211707 2.200000 0.753129
v 0.278716 2.200000 0.756237
v 0.700714 2.200000 0.485123
v 0.823892 5.000000 0.000000
v 0.686656 5.000000 -0.444394
v 0.304852 5.000000 -0.707411
v -0.157246 5.000000 -0.714778
v -0.529338 5.000000 -0.439077
v -0.670690 5.000000 -0.000000
v -0.535392 5.000000 0.443476
v -0.158139 5.000000 0.717530
v 0.311853 5.000000 0.728960
v 0.688337 5.000000 0.445616
v 0.824841 8.400000 0.000000
v 0.689367 8.400000 -0.409310
v 0.342610 8.400000 -0.666656
v -0.087230 8.400000 -0.656254
v -0.418180 8.400000 -0.395370
v -0.570505 8.400000 -0.000000
v -0.440362 8.400000 0.411486
v -0.089697 8.400000 0.663849
v 0.338150 8.400000 0.652931
v 0.685421 8.400000 0.406443
v 0.770871 15.000000 0.000000
v 0.680521 15.000000 -0.330955
v 0.396785 15.000000 -0.528699
v 0.055685 15.000000 -0.521099
v -0.213311 15.000000 -0.318451
v -0.338673 15.000000 -0.000000
v -0.234065 15.000000 0.333530
v 0.057366 15.000000 0.515925
v 0.398728 15.000000 0.534680
v 0.671085 15.000000 0.324100
v 0.726107 24.799999 0.000000
v 0.660565 24.799999 -0.209655
v 0.484866 24.799999 -0.347367
v 0.258555 24.799999 -0.349149
v 0.087075 24.799999 -0.207010
v 0.009536 24.799999 -0.000000
v 0.087064 24.799999 0.207018
v 0.259414 24.799999 0.346504
v 0.482428 24.799999 0.339864
v 0.669123 24.799999 0.215872
v 0.210000 19.383333 0.000000
v -5.917920 13.341616 0.201626
v -2.071272 14.969000 0.070569
v -3.665722 13.240083 3.294997
v -1.283003 14.969000 1.153249
v -0.683248 13.380916 4.831779
v -0.239137 14.969000 1.691123
v 2.797009 13.236337 4.484621
v 0.978953 14.969000 1.569617
v 4.767535 13.435147 1.553544
v 1.668637 14.969000 0.543740
v 5.361489 13.340159 -2.160887
v 1.876521 14.969000 -0.756310
v 2.764168 13.136169 -5.188008
v 0.967459 14.969000 -1.815803
v -1.087775 13.288857 -5.139037
v -0.380721 14.969000 -1.798663
v -4.257257 13.224639 -3.331960
v -1.490040 14.969000 -1.166186
v 0.253860 22.307333 0.000000
v -4.103114 16.044783 1.602541
v -1.436090 17.893000 0.560889
v -2.066398 16.223083 3.779673
v -0.723239 17.893000 1.322886
v 0.882636 16.290827 4.403568
v 0.308923 17.893000 1.541249
v 3.225087 16.031771 2.580643
v 1.128780 17.893000 0.903225
v 4.318620 16.182049 -0.100566
v 1.511517 17.893000 -0.035198
v 2.914369 16.228676 -2.563400
v 1.020029 17.893000 -0.897190
v 0.658509 16.366982 -4.320515
v 0.230478 17.893000 -1.512180
v -2.288757 16.152737 -3.759320
v -0.801065 17.893000 -1.315762
v -3.716785 16.154430 -1.255606
v -1.300875 17.893000 -0.439462
v 0.297720 25.231333 0.000000
v -1.438241 19.050568 3.020938
v -0.503384 20.816999 1.057328
v 0.906794 19.290236 3.495914
v 0.317378 20.816999 1.223570
v 2.561303 19.061394 1.824175
v 0.896456 20.816999 0.638461
v 3.755103 19.210108 -0.298257
v 1.314286 20.816999 -0.104390
v 2.435705 19.090565 -2.397015
v 0.852497 20.816999 -0.838955
v 0.316148 19.170616 -3.308318
v 0.110652 20.816999 -1.157911
v -1.881487 19.168797 -2.733358
v -0.658521 20.816999 -0.956675
v -3.386307 19.192858 -0.936478
v -1.185207 20.816999 -0.327767
v -3.058997 19.027704 1.396729
v -1.070649 20.816999 0.488855
v 0.341580 28.155333 0.000000
v -2.357563 22.113495 1.095989
v -0.825147 23.740999 0.383596
v -0.993648 21.940668 2.124385
v -0.347777 23.740999 0.743535
v 0.606417 22.156412 2.273831
v 0.212246 23.740999 0.795841
v 2.006020 21.977676 1.408135
v 0.702107 23.740999 0.492847
v 2.276878 22.109312 -0.196514
v 0.796907 23.740999 -0.068780
v 1.699407 21.930262 -1.695430
v 0.594792 23.740999 -0.593400
v 0.216611 21.922564 -2.442913
v 0.075814 23.740999 -0.855020
v -1.327803 22.104151 -1.901036
v -0.464731 23.740999 -0.665362
v -2.469753 21.912285 -0.664870
v -0.864414 23.740999 -0.232705
v 0.385440 31.079334 0.000000
v 0.271430 24.960630 -1.715681
v 0.095000 26.665001 -0.600488
v -0.908425 24.863628 -1.511275
v -0.317949 26.665001 -0.528946
v -1.897535 25.081745 -0.653002
v -0.664137 26.665001 -0.228551
v -1.676868 24.863470 0.644026
v -0.586904 26.665001 0.225409
v -0.936779 24.863810 1.690692
v -0.327873 26.665001 0.591742
v 0.347844 25.100609 1.787834
v 0.121746 26.665001 0.625742
v 1.400077 24.868149 1.133355
v 0.490027 26.665001 0.396674
v 1.793222 25.024776 -0.031615
v 0.627628 26.665001 -0.011065
v 1.394704 24.999081 -1.212826
v 0.488146 26.665001 -0.424489
v 0.429300 34.003334 0.000000
v 0.873432 28.068369 0.475806
v 0.305701 29.589001 0.166532
v 1.139778 27.762007 -0.230243
v 0.398922 29.589001 -0.080585
v 0.730937 27.917976 -0.916300
v 0.255828 29.589001 -0.320705
v -0.028861 27.745419 -1.163915
v -0.010101 29.589001 -0.407370
v -0.667363 27.809067 -0.756430
v -0.233577 29.589001 -0.264750
v -1.127278 27.837954 -0.170073
v -0.394547 29.589001 -0.059526
v -0.914953 27.968836 0.558938
v -0.320233 29.589001 0.195628
v -0.329504 27.990387 0.980260
v -0.115326 29.589001 0.343091
v 0.356385 27.863962 0.908433
v 0.124735 29.589001 0.317952
vn 0.9182 0.1271 -0.3752
vn 0.6422 0.1318 -0.7552
vn -0.0725 0.1572 -0.9849
vn -0.5489 0.1510 -0.8222
vn -0.9610 0.1276 -0.2452
vn -0.9729 0.1316 0.1901
vn -0.4856 0.1431 0.8624
vn -0.0864 0.1187 0.9892
vn 0.6234 0.1392 0.7695
vn 0.9204 0.1614 0.3562
vn 0.9280 0.1994 -0.3146
vn 0.6024 0.1873 -0.7759
vn -0.0549 0.2039 -0.9774
vn -0.5559 0.2171 -0.8024
vn -0.9316 0.2049 -0.3002
vn -0.9419 0.2167 0.2568
vn -0.5279 0.2112 0.8226
vn -0.0656 0.1870 0.9802
vn 0.6253 0.1827 0.7587
vn 0.9263 0.1948 0.3226
vn 0.9465 0.0655 -0.3159
vn 0.6060 0.0820 -0.7912
vn -0.0420 0.0826 -0.9957
vn -0.5665 0.0783 -0.8204
vn -0.9429 0.0870 -0.3215
vn -0.9370 0.1083 0.3320
vn -0.5791 0.1120 0.8076
vn -0.0271 0.1091 0.9937
vn 0.5837 0.0870 0.8073
vn 0.9528 0.0555 0.2984
vn 0.9467 0.0063 -0.3221
vn 0.5910 0.0117 -0.8066
vn -0.0065 0.0218 -0.9997
vn -0.5753 0.0307 -0.8174
vn -0.9514 0.0403 -0.3054
vn -0.9434 0.0331 0.3301
vn -0.5889 0.0213 0.8079
vn -0.0151 0.0115 0.9998
vn 0.5703 0.0077 0.8214
vn 0.9543 0.0098 0.2988
vn 0.9526 0.0011 -0.3043
vn 0.5812 0.0056 -0.8137
vn -0.0034 0.0147 -0.9999
vn -0.6065 0.0281 -0.7946
vn -0.9428 0.0314 -0.3318
vn -0.9546 0.0288 0.2964
vn -0.5858 0.0243 0.8101
vn -0.0006 0.0191 0.9998
vn 0.5907 0.0116 0.8068
vn 0.9517 0.0020 0.3071
vn 0.9565 0.0063 -0.2918
vn 0.5852 0.0113 -0.8108
vn -0.0233 0.0210 -0.9995
vn -0.6111 0.0288 -0.7910
vn -0.9315 0.0329 -0.3624
vn -0.9532 0.0334 0.3004
vn -0.5604 0.0292 0.8277
vn -0.0102 0.0203 0.9997
vn 0.5936 0.0101 0.8047
vn 0.9503 0.0069 0.3112
vn 0.9608 0.0049 -0.2771
vn 0.5897 0.0104 -0.8076
vn -0.0103 0.0182 -0.9998
vn -0.6162 0.0272 -0.7872
vn -0.9324 0.0329 -0.3600
vn -0.9471 0.0344 0.3191
vn -0.5700 0.0276 0.8212
vn -0.0215 0.0189 0.9996
vn 0.5890 0.0100 0.8081
vn 0.9603 0.0038 0.2788
vn -0.6129 0.6373 0.4672
vn 0.3696 -0.8826 -0.2905
vn -0.3846 0.6129 0.6903
vn 0.2458 -0.8747 -0.4177
vn 0.1035 0.6143 0.7823
vn -0.0737 -0.8814 -0.4666
vn 0.6372 0.6109 0.4698
vn -0.3605 -0.8875 -0.2870
vn 0.7753 0.6223 0.1081
vn -0.4350 -0.8989 -0.0525
vn 0.5512 0.6548 -0.5171
vn -0.3090 -0.8991 0.3100
vn 0.0157 0.6426 -0.7660
vn -0.0202 -0.8872 0.4610
vn -0.3900 0.6407 -0.6613
vn 0.2406 -0.8850 0.3986
vn -0.6670 0.6653 -0.3355
vn 0.3931 -0.8959 0.2067
vn -0.6227 0.5703 0.5358
vn 0.4272 -0.8341 -0.3491
vn -0.1828 0.5682 0.8024
vn 0.1218 -0.8532 -0.5072
vn 0.5573 0.5275 0.6412
vn -0.3842 -0.8290 -0.4064
vn 0.7836 0.5143 0.3484
vn -0.5170 -0.8202 -0.2449
vn 0.7531 0.5066 -0.4198
vn -0.4939 -0.8265 0.2700
vn 0.5455 0.5170 -0.6597
vn -0.3585 -0.8380 0.4114
vn -0.1936 0.5684 -0.7996
vn 0.1415 -0.8532 0.5021
vn -0.7243 0.5518 -0.4135
vn 0.4955 -0.8212 0.2830
vn -0.8282 0.5530 -0.0907
vn 0.5773 -0.8147 0.0549
vn -0.2210 0.4777 0.8503
vn 0.1798 -0.7837 -0.5946
vn 0.6716 0.4257 0.6064
vn -0.4919 -0.7686 -0.4089
vn 0.7768 0.4229 0.4666
vn -0.5433 -0.7652 -0.3453
vn 0.7436 0.4514 -0.4932
vn -0.5028 -0.7906 0.3494
vn 0.3676 0.4464 -0.8158
vn -0.2685 -0.7736 0.5741
vn -0.2243 0.4664 -0.8557
vn 0.1600 -0.7763 0.6098
vn -0.6640 0.4924 -0.5627
vn 0.4706 -0.7855 0.4019
vn -0.8539 0.4969 0.1550
vn 0.6210 -0.7734 -0.1277
vn -0.6254 0.4774 0.6173
vn 0.4679 -0.7553 -0.4590
vn -0.5277 0.3741 0.7627
vn 0.4167 -0.6518 -0.6337
vn -0.1334 0.3461 0.9287
vn 0.1347 -0.6452 -0.7521
vn 0.5275 0.3214 0.7864
vn -0.4397 -0.6591 -0.6101
vn 0.9381 0.2944 0.1825
vn -0.7436 -0.6480 -0.1649
vn 0.8797 0.2937 -0.3740
vn -0.6969 -0.6393 0.3250
vn 0.4247 0.3230 -0.8458
vn -0.3468 -0.6324 0.6927
vn -0.2719 0.3559 -0.8941
vn 0.2025 -0.6447 0.7371
vn -0.7076 0.3820 -0.5944
vn 0.5936 -0.6507 0.4735
vn -0.9122 0.4096 0.0113
vn 0.7407 -0.6717 0.0097
vn -0.1858 0.2685 -0.9452
vn 0.1764 -0.5206 0.8354
vn -0.5851 0.3045 -0.7516
vn 0.4957 -0.5474 0.6743
vn -0.9208 0.3275 0.2118
vn 0.8069 -0.5535 -0.2063
vn -0.7753 0.3140 0.5481
vn 0.6915 -0.5320 -0.4888
vn -0.1244 0.2850 0.9504
vn 0.1385 -0.5631 -0.8147
vn 0.5503 0.2360 0.8009
vn -0.5047 -0.5476 -0.6674
vn 0.9171 0.2115 0.3379
vn -0.7811 -0.5378 -0.3172
vn 0.9236 0.2164 -0.3163
vn -0.7835 -0.5580 0.2733
vn 0.3895 0.2419 -0.8887
vn -0.3317 -0.5425 0.7718
vn 0.9444 0.0959 0.3146
vn -0.9040 -0.3641 -0.2240
vn 0.8646 0.1165 -0.4888
vn -0.8223 -0.3767 0.4266
vn 0.2737 0.1565 -0.9490
vn -0.2295 -0.3753 0.8980
vn -0.5141 0.1931 -0.8357
vn 0.4884 -0.3381 0.8044
vn -0.7643 0.2098 -0.6098
vn 0.7332 -0.3424 0.5876
vn -0.9443 0.2320 0.2334
vn 0.9034 -0.3717 -0.2137
vn -0.5770 0.2018 0.7914
vn 0.5491 -0.3708 -0.7490
vn 0.1292 0.1436 0.9812
vn -0.1441 -0.3435 -0.9280
vn 0.6123 0.1086 0.7831
vn -0.5405 -0.3458 -0.7670
s 0
usemtl fir_bark
f 1//1 2//1 12//1 11//1
f 2//2 3//2 13//2 12//2
f 3//3 4//3 14//3 13//3
f 4//4 5//4 15//4 14//4
f 5//5 6//5 16//5 15//5
f 6//6 7//6 17//6 16//6
f 7//7 8//7 18//7 17//7
f 8//8 9//8 19//8 18//8
f 9//9 10//9 20//9 19//9
f 10//10 1//10 11//10 20//10
f 11//11 12//11 22//11 21//11
f 12//12 13//12 23//12 22//12
f 13//13 14//13 24//13 23//13
f 14//14 15//14 25//14 24//14
f 15//15 16//15 26//15 25//15
f 16//16 17//16 27//16 26//16
f 17//17 18//17 28//17 27//17
f 18//18 19//18 29//18 28//18
f 19//19 20//19 30//19 29//19
f 20//20 11//20 21//20 30//20
f 21//21 22//21 32//21 31//21
f 22//22 23//22 33//22 32//22
f 23//23 24//23 34//23 33//23
f 24//24 25//24 35//24 34//24
f 25//25 26//25 36//25 35//25
f 26//26 27//26 37//26 36//26
f 27//27 28//27 38//27 37//27
f 28//28 29//28 39//28 38//28
f 29//29 30//29 40//29 39//29
f 30//30 21//30 31//30 40//30
f 31//31 32//31 42//31 41//31
f 32//32 33//32 43//32 42//32
f 33//33 34//33 44//33 43//33
f 34//34 35//34 45//34 44//34
f 35//35 36//35 46//35 45//35
f 36//36 37//36 47//36 46//36
f 37//37 38//37 48//37 47//37
f 38//38 39//38 49//38 48//38
f 39//39 40//39 50//39 49//39
f 40//40 31//40 41//40 50//40
f 41//41 42//41 52//41 51//41
f 42//42 43//42 53//42 52//42
f 43//43 44//43 54//43 53//43
f 44//44 45//44 55//44 54//44
f 45//45 46//45 56//45 55//45
f 46//46 47//46 57//46 56//46
f 47//47 48//47 58//47 57//47
f 48//48 49//48 59//48 58//48
f 49//49 50//49 60//49 59//49
f 50//50 41//50 51//50 60//50
f 51//51 52//51 62//51 61//51
f 52//52 53//52 63//52 62//52
f 53//53 54//53 64//53 63//53
f 54//54 55//54 65//54 64//54
f 55//55 56//55 66//55 65//55
f 56//56 57//56 67//56 66//56
f 57//57 58//57 68//57 67//57
f 58//58 59//58 69//58 68//58
f 59//59 60//59 70//59 69//59
f 60//60 51//60 61//60 70//60
f 61//61 62//61 72//61 71//61
f 62//62 63//62 73//62 72//62
f 63//63 64//63 74//63 73//63
f 64//64 65//64 75//64 74//64
f 65//65 66//65 76//65 75//65
f 66//66 67//66 77//66 76//66
f 67//67 68//67 78//67 77//67
f 68//68 69//68 79//68 78//68
f 69//69 70//69 80//69 79//69
f 70//70 61//70 71//70 80//70
usemtl fir_needles
f 84//73 86//73 81//73
f 86//75 88//75 81//75
f 90//79 92//79 81//79
f 92//81 94//81 81//81
f 96//85 98//85 81//85
f 98//87 82//87 81//87
f 101//89 103//89 100//89
f 103//91 105//91 100//91
f 107//95 109//95 100//95
f 109//97 111//97 100//97
f 113//101 115//101 100//101
f 115//103 117//103 100//103
f 120//107 122//107 119//107
f 124//111 126//111 119//111
f 126//113 128//113 119//113
f 130//117 132//117 119//117
f 132//119 134//119 119//119
f 136//123 120//123 119//123
f 141//127 143//127 138//127
f 143//129 145//129 138//129
f 147//133 149//133 138//133
f 149//135 151//135 138//135
f 153//139 155//139 138//139
f 155//141 139//141 138//141
f 158//143 160//143 157//143
f 160//145 162//145 157//145
f 164//149 166//149 157//149
f 166//151 168//151 157//151
f 170//155 172//155 157//155
f 172//157 174//157 157//157
f 177//161 179//161 176//161
f 181//165 183//165 176//165
f 183//167 185//167 176//167
f 187//171 189//171 176//171
f 189//173 191//173 176//173
f 193//177 177//177 176//177
usemtl fir_needles_dark
f 82//71 84//71 81//71
f 84//72 82//72 83//72 85//72
f 86//74 84//74 85//74 87//74
f 88//76 86//76 87//76 89//76
f 88//77 90//77 81//77
f 90//78 88//78 89//78 91//78
f 92//80 90//80 91//80 93//80
f 94//82 92//82 93//82 95//82
f 94//83 96//83 81//83
f 96//84 94//84 95//84 97//84
f 98//86 96//86 97//86 99//86
f 82//88 98//88 99//88 83//88
f 103//90 101//90 102//90 104//90
f 105//92 103//92 104//92 106//92
f 105//93 107//93 100//93
f 107//94 105//94 106//94 108//94
f 109//96 107//96 108//96 110//96
f 111//98 109//98 110//98 112//98
f 111//99 113//99 100//99
f 113//100 111//100 112//100 114//100
f 115//102 113//102 114//102 116//102
f 117//104 115//104 116//104 118//104
f 117//105 101//105 100//105
f 101//106 117//106 118//106 102//106
f 122//108 120//108 121//108 123//108
f 122//109 124//109 119//109
f 124//110 122//110 123//110 125//110
f 126//112 124//112 125//112 127//112
f 128//114 126//114 127//114 129//114
f 128//115 130//115 119//115
f 130//116 128//116 129//116 131//116
f 132//118 130//118 131//118 133//118
f 134//120 132//120 133//120 135//120
f 134//121 136//121 119//121
f 136//122 134//122 135//122 137//122
f 120//124 136//124 137//124 121//124
f 139//125 141//125 138//125
f 141//126 139//126 140//126 142//126
f 143//128 141//128 142//128 144//128
f 145//130 143//130 144//130 146//130
f 145//131 147//131 138//131
f 147//132 145//132 146//132 148//132
f 149//134 147//134 148//134 150//134
f 151//136 149//136 150//136 152//136
f 151//137 153//137 138//137
f 153//138 151//138 152//138 154//138
f 155//140 153//140 154//140 156//140
f 139//142 155//142 156//142 140//142
f 160//144 158//144 159//144 161//144
f 162//146 160//146 161//146 163//146
f 162//147 164//147 157//147
f 164//148 162//148 163//148 165//148
f 166//150 164//150 165//150 167//150
f 168//152 166//152 167//152 169//152
f 168//153 170//153 157//153
f 170//154 168//154 169//154 171//154
f 172//156 170//156 171//156 173//156
f 174//158 172//158 173//158 175//158
f 174//159 158//159 157//159
f 158//160 174//160 175//160 159//160
f 179//162 177//162 178//162 180//162
f 179//163 181//163 176//163
f 181//164 179//164 180//164 182//164
f 183//166 181//166 182//166 184//166
f 185//168 183//168 184//168 186//168
f 185//169 187//169 176//169
f 187//170 185//170 186//170 188//170
f 189//172 187//172 188//172 190//172
f 191//174 189//174 190//174 192//174
f 191//175 193//175 176//175
f 193//176 191//176 192//176 194//176
f 177//178 193//178 194//178 178//178
