# Blender 5.2.2 LTS
# www.blender.org
mtllib GiantFir_B.mtl
o GiantFir_B
v 0.832213 -0.250000 0.000000
v 0.809826 -0.250000 -0.588373
v 0.256142 -0.250000 -0.788324
v -0.307560 -0.250000 -0.946572
v -0.680636 -0.250000 -0.494511
v -0.971545 -0.250000 -0.000000
v -0.685492 -0.250000 0.498039
v -0.299909 -0.250000 0.923026
v 0.260869 -0.250000 0.802872
v 0.786473 -0.250000 0.571406
v 0.785113 0.350000 0.000000
v 0.729608 0.350000 -0.526277
v 0.255296 0.350000 -0.769564
v -0.267254 0.350000 -0.838681
v -0.629940 0.350000 -0.461493
v -0.899224 0.350000 -0.000000
v -0.653272 0.350000 0.478444
v -0.273549 0.350000 0.858055
v 0.250005 0.350000 0.753277
v 0.749666 0.350000 0.540850
v 0.721746 1.000000 0.000000
v 0.645419 1.000000 -0.458026
v 0.236112 1.000000 -0.680512
v -0.217351 1.000000 -0.715103
v -0.558852 1.000000 -0.416928
v -0.743190 1.000000 -0.000000
v -0.579280 1.000000 0.431769
v -0.217782 1.000000 0.716430
v 0.239374 1.000000 0.690553
v 0.638620 1.000000 0.453087
v 0.686160 2.200000 0.000000
v 0.566080 2.200000 -0.387305
v 0.231693 2.200000 -0.611514
v -0.165661 2.200000 -0.611414
v -0.490992 2.200000 -0.380702
v -0.630283 2.200000 -0.000000
v -0.496885 2.200000 0.384984
v -0.168246 2.200000 0.619371
v 0.237003 2.200000 0.627855
v 0.563566 2.200000 0.385478
v 0.672039 5.000000 0.000000
v 0.570081 5.000000 -0.359697
v 0.263215 5.000000 -0.579267
v -0.108976 5.000000 -0.566221
v -0.414715 5.000000 -0.355799
v -0.528837 5.000000 -0.000000
v -0.422051 5.000000 0.361129
v -0.113499 5.000000 0.580140
v 0.259385 5.000000 0.567479
v 0.574613 5.000000 0.362990
v 0.657728 7.200000 0.000000
v 0.559542 7.200000 -0.328064
v 0.283409 7.200000 -0.539854
v -0.062169 7.200000 -0.523727
v -0.345148 7.200000 -0.329231
v -0.439519 7.200000 -0.000000
v -0.349211 7.200000 0.332184
v -0.067474 7.200000 0.540052
v 0.281815 7.200000 0.534947
v 0.569910 7.200000 0.335597
v 0.638828 13.000000 0.000000
v 0.560979 13.000000 -0.265899
v 0.334093 13.000000 -0.428084
v 0.056007 13.000000 -0.427775
v -0.166646 13.000000 -0.262751
v -0.260615 13.000000 -0.000000
v -0.175498 13.000000 0.269183
v 0.056740 13.000000 0.425522
v 0.334576 13.000000 0.429570
v 0.549478 13.000000 0.257543
v 0.611790 20.799999 0.000000
v 0.553883 20.799999 -0.175738
v 0.405977 20.799999 -0.289233
v 0.218807 20.799999 -0.286817
v 0.074470 20.799999 -0.172576
v 0.016895 20.799999 -0.000000
v 0.069859 20.799999 0.175926
v 0.222473 20.799999 0.275535
v 0.403541 20.799999 0.281733
v 0.548131 20.799999 0.171559
v 0.180000 17.320000 0.000000
v 3.872441 11.404731 -1.503855
v 1.355354 12.957600 -0.526349
v 1.802177 11.313168 -3.281348
v 0.630762 12.957600 -1.148472
v -0.824404 11.421797 -4.154564
v -0.288541 12.957600 -1.454097
v -3.042467 11.257696 -2.444144
v -1.064863 12.957600 -0.855451
v -4.244033 11.163252 0.090648
v -1.485412 12.957600 0.031727
v -3.181345 11.352552 2.787371
v -1.113471 12.957600 0.975580
v -0.591380 11.324430 3.830515
v -0.206983 12.957600 1.340680
v 2.200851 11.114794 3.630662
v 0.770298 12.957600 1.270732
v 3.472253 11.388324 1.180456
v 1.215289 12.957600 0.413160
v 0.225150 20.330000 0.000000
v 0.338847 14.253807 -3.224446
v 0.118596 15.967600 -1.128556
v -1.732241 14.458568 -2.568057
v -0.606284 15.967600 -0.898820
v -3.075346 14.330761 -0.881784
v -1.076371 15.967600 -0.308624
v -3.010227 14.126415 1.340302
v -1.053580 15.967600 0.469106
v -1.479835 14.279578 3.034244
v -0.517942 15.967600 1.061985
v 0.805284 14.223330 3.229580
v 0.281849 15.967600 1.130353
v 2.396257 14.145164 1.740920
v 0.838690 15.967600 0.609322
v 3.425703 14.153920 -0.239608
v 1.198996 15.967600 -0.083863
v 2.478600 14.322667 -2.393639
v 0.867510 15.967600 -0.837774
v 0.270300 23.340000 0.000000
v 2.078288 17.448214 -1.581705
v 0.727401 18.977600 -0.553597
v 0.511828 17.396933 -2.266246
v 0.179140 18.977600 -0.793186
v -1.086766 17.350981 -2.107975
v -0.380368 18.977600 -0.737791
v -2.136008 17.469919 -0.894679
v -0.747603 18.977600 -0.313138
v -2.259303 17.434488 0.702542
v -0.790756 18.977600 0.245890
v -1.337538 17.461075 2.081300
v -0.468138 18.977600 0.728455
v 0.346111 17.255075 2.711826
v 0.121139 18.977600 0.949139
v 1.737056 17.381710 1.604406
v 0.607970 18.977600 0.561542
v 2.462986 17.342543 0.117299
v 0.862045 18.977600 0.041055
v 0.315450 26.350000 0.000000
v 1.057353 20.316904 1.475954
v 0.370074 21.987600 0.516584
v 1.595654 20.449940 0.409181
v 0.558479 21.987600 0.143213
v 1.371614 20.360077 -0.657677
v 0.480065 21.987600 -0.230187
v 0.650154 20.189901 -1.434407
v 0.227554 21.987600 -0.502042
v -0.414779 20.471916 -1.483842
v -0.145173 21.987600 -0.519345
v -1.486904 20.295111 -1.017446
v -0.520417 21.987600 -0.356106
v -1.528444 20.289890 0.150331
v -0.534955 21.987600 0.052616
v -1.046585 20.295162 1.069383
v -0.366305 21.987600 0.374284
v -0.138377 20.177835 1.805488
v -0.048432 21.987600 0.631921
v 0.360600 29.360001 0.000000
v -0.063776 23.431536 -0.911708
v -0.022322 24.997601 -0.319098
v -0.687756 23.303593 -0.712156
v -0.240715 24.997601 -0.249254
v -0.985946 23.374617 -0.103601
v -0.345081 24.997601 -0.036261
v -0.735309 23.205971 0.496000
v -0.257358 24.997601 0.173600
v -0.283891 23.191580 0.990141
v -0.099362 24.997601 0.346549
v 0.405316 23.203583 0.910291
v 0.141860 24.997601 0.318602
v 0.884439 23.410641 0.431341
v 0.309554 24.997601 0.150970
v 0.914286 23.365553 -0.227982
v 0.320000 24.997601 -0.079794
v 0.499902 23.480223 -0.688094
v 0.174966 24.997601 -0.240833
vn 0.9916 0.1088 -0.0693
vn 0.3944 0.0883 -0.9147
vn 0.2039 0.0961 -0.9743
vn -0.7413 0.1335 -0.6577
vn -0.8583 0.1018 -0.5029
vn -0.8750 0.0840 0.4767
vn -0.7220 0.0836 0.6868
vn 0.2023 0.0905 0.9751
vn 0.3961 0.0769 0.9150
vn 0.9948 0.0714 0.0726
vn 0.9842 0.1186 -0.1318
vn 0.4615 0.1426 -0.8756
vn 0.1043 0.1581 -0.9819
vn -0.6837 0.1558 -0.7129
vn -0.8758 0.1685 -0.4523
vn -0.8980 0.1734 0.4044
vn -0.6575 0.1719 0.7336
vn 0.1306 0.1495 0.9801
vn 0.4429 0.1439 0.8849
vn 0.9832 0.1398 0.1173
vn 0.9727 0.0532 -0.2260
vn 0.5137 0.0677 -0.8553
vn 0.0404 0.0709 -0.9967
vn -0.6196 0.0764 -0.7812
vn -0.9240 0.0753 -0.3749
vn -0.9364 0.0828 0.3409
vn -0.5991 0.0807 0.7966
vn 0.0201 0.0660 0.9976
vn 0.5504 0.0630 0.8325
vn 0.9699 0.0514 0.2379
vn 0.9585 0.0031 -0.2849
vn 0.5691 0.0052 -0.8223
vn -0.0171 0.0141 -0.9998
vn -0.5728 0.0239 -0.8194
vn -0.9451 0.0314 -0.3252
vn -0.9514 0.0313 0.3063
vn -0.5796 0.0226 0.8146
vn 0.0054 0.0177 0.9998
vn 0.5714 0.0087 0.8206
vn 0.9594 0.0017 0.2820
vn 0.9601 0.0074 -0.2794
vn 0.5947 0.0117 -0.8038
vn -0.0406 0.0192 -0.9990
vn -0.5665 0.0279 -0.8236
vn -0.9560 0.0363 -0.2910
vn -0.9612 0.0372 0.2733
vn -0.5858 0.0285 0.8100
vn 0.0246 0.0161 0.9996
vn 0.5562 0.0091 0.8310
vn 0.9666 0.0058 0.2563
vn 0.9588 0.0030 -0.2842
vn 0.5966 0.0094 -0.8025
vn -0.0263 0.0183 -0.9995
vn -0.5793 0.0262 -0.8147
vn -0.9525 0.0311 -0.3030
vn -0.9595 0.0307 0.2799
vn -0.5780 0.0273 0.8156
vn 0.0017 0.0189 0.9998
vn 0.5939 0.0111 0.8044
vn 0.9582 0.0052 0.2862
vn 0.9559 0.0038 -0.2938
vn 0.5925 0.0094 -0.8055
vn -0.0059 0.0180 -0.9998
vn -0.6053 0.0275 -0.7955
vn -0.9439 0.0333 -0.3286
vn -0.9546 0.0338 0.2961
vn -0.5536 0.0276 0.8324
vn -0.0223 0.0194 0.9996
vn 0.6174 0.0091 0.7866
vn 0.9419 0.0036 0.3359
vn 0.5471 0.5102 -0.6635
vn -0.3489 -0.8285 0.4380
vn 0.2891 0.5179 -0.8051
vn -0.1984 -0.8305 0.5204
vn -0.5369 0.5450 -0.6440
vn 0.3654 -0.8334 0.4146
vn -0.7654 0.5449 -0.3425
vn 0.5292 -0.8172 0.2283
vn -0.7805 0.5648 0.2679
vn 0.5250 -0.8353 -0.1634
vn -0.3094 0.5399 0.7828
vn 0.2002 -0.8342 -0.5138
vn 0.1000 0.5265 0.8443
vn -0.0862 -0.8185 -0.5680
vn 0.7441 0.5010 0.4420
vn -0.4840 -0.8150 -0.3185
vn 0.8556 0.5009 0.1306
vn -0.5480 -0.8321 -0.0855
vn -0.2283 0.4530 -0.8618
vn 0.1414 -0.7686 0.6239
vn -0.7084 0.4675 -0.5288
vn 0.5157 -0.7741 0.3673
vn -0.8783 0.4730 0.0692
vn 0.6557 -0.7517 -0.0704
vn -0.6743 0.4740 0.5663
vn 0.5114 -0.7544 -0.4115
vn -0.0643 0.4618 0.8847
vn 0.0409 -0.7661 -0.6414
vn 0.6345 0.4076 0.6567
vn -0.4841 -0.7255 -0.4891
vn 0.8110 0.4038 0.4233
vn -0.6120 -0.7230 -0.3205
vn 0.8324 0.4442 -0.3312
vn -0.5979 -0.7714 0.2181
vn 0.3106 0.4501 -0.8372
vn -0.2148 -0.7701 0.6006
vn 0.3664 0.3445 -0.8643
vn -0.2763 -0.6887 0.6704
vn -0.1022 0.3508 -0.9309
vn 0.0875 -0.6665 0.7403
vn -0.6826 0.3754 -0.6271
vn 0.5336 -0.6744 0.5104
vn -0.9201 0.3867 -0.0624
vn 0.7283 -0.6838 0.0450
vn -0.7691 0.3897 0.5066
vn 0.6033 -0.6937 -0.3934
vn -0.2813 0.3877 0.8778
vn 0.1940 -0.6998 -0.6874
vn 0.5662 0.3414 0.7502
vn -0.4288 -0.6789 -0.5960
vn 0.8546 0.3204 0.4087
vn -0.6690 -0.6739 -0.3134
vn 0.9236 0.3340 -0.1883
vn -0.7058 -0.6968 0.1277
vn 0.8600 0.2186 0.4612
vn -0.7249 -0.5487 -0.4165
vn 0.9569 0.1926 -0.2172
vn -0.8308 -0.5168 0.2067
vn 0.6961 0.1985 -0.6900
vn -0.6009 -0.4833 0.6366
vn 0.1061 0.2310 -0.9672
vn -0.1372 -0.4969 0.8569
vn -0.4212 0.2708 -0.8656
vn 0.3917 -0.5315 0.7511
vn -0.9564 0.2902 -0.0327
vn 0.8633 -0.5039 0.0290
vn -0.8532 0.2707 0.4458
vn 0.7782 -0.4792 -0.4060
vn -0.5858 0.2669 0.7653
vn 0.5209 -0.4882 -0.7003
vn 0.2287 0.2578 0.9387
vn -0.1810 -0.5363 -0.8244
vn -0.3312 0.1665 -0.9288
vn 0.3328 -0.3352 0.8814
vn -0.8696 0.2034 -0.4499
vn 0.8316 -0.3426 0.4371
vn -0.8851 0.1918 0.4239
vn 0.8522 -0.3107 -0.4210
vn -0.7233 0.1825 0.6660
vn 0.7004 -0.3025 -0.6464
vn 0.1113 0.1462 0.9830
vn -0.1047 -0.3248 -0.9400
vn 0.6778 0.1124 0.7266
vn -0.6098 -0.3363 -0.7177
vn 0.9951 0.0904 0.0389
vn -0.9393 -0.3422 -0.0252
vn 0.7513 0.0942 -0.6532
vn -0.7315 -0.3267 0.5985
vn 0.3575 0.1169 -0.9266
vn -0.3300 -0.3288 0.8849
s 0
usemtl fir_bark
f 1//1 2//1 12//1 11//1
f 2//2 3//2 13//2 12//2
f 3//3 4//3 14//3 13//3
f 4//4 5//4 15//4 14//4
f 5//5 6//5 16//5 15//5
f 6//6 7//6 17//6 16//6
f 7//7 8//7 18//7 17//7
f 8//8 9//8 19//8 18//8
f 9//9 10//9 20//9 19//9
f 10//10 1//10 11//10 20//10
f 11//11 12//11 22//11 21//11
f 12//12 13//12 23//12 22//12
f 13//13 14//13 24//13 23//13
f 14//14 15//14 25//14 24//14
f 15//15 16//15 26//15 25//15
f 16//16 17//16 27//16 26//16
f 17//17 18//17 28//17 27//17
f 18//18 19//18 29//18 28//18
f 19//19 20//19 30//19 29//19
f 20//20 11//20 21//20 30//20
f 21//21 22//21 32//21 31//21
f 22//22 23//22 33//22 32//22
f 23//23 24//23 34//23 33//23
f 24//24 25//24 35//24 34//24
f 25//25 26//25 36//25 35//25
f 26//26 27//26 37//26 36//26
f 27//27 28//27 38//27 37//27
f 28//28 29//28 39//28 38//28
f 29//29 30//29 40//29 39//29
f 30//30 21//30 31//30 40//30
f 31//31 32//31 42//31 41//31
f 32//32 33//32 43//32 42//32
f 33//33 34//33 44//33 43//33
f 34//34 35//34 45//34 44//34
f 35//35 36//35 46//35 45//35
f 36//36 37//36 47//36 46//36
f 37//37 38//37 48//37 47//37
f 38//38 39//38 49//38 48//38
f 39//39 40//39 50//39 49//39
f 40//40 31//40 41//40 50//40
f 41//41 42//41 52//41 51//41
f 42//42 43//42 53//42 52//42
f 43//43 44//43 54//43 53//43
f 44//44 45//44 55//44 54//44
f 45//45 46//45 56//45 55//45
f 46//46 47//46 57//46 56//46
f 47//47 48//47 58//47 57//47
f 48//48 49//48 59//48 58//48
f 49//49 50//49 60//49 59//49
f 50//50 41//50 51//50 60//50
f 51//51 52//51 62//51 61//51
f 52//52 53//52 63//52 62//52
f 53//53 54//53 64//53 63//53
f 54//54 55//54 65//54 64//54
f 55//55 56//55 66//55 65//55
f 56//56 57//56 67//56 66//56
f 57//57 58//57 68//57 67//57
f 58//58 59//58 69//58 68//58
f 59//59 60//59 70//59 69//59
f 60//60 51//60 61//60 70//60
f 61//61 62//61 72//61 71//61
f 62//62 63//62 73//62 72//62
f 63//63 64//63 74//63 73//63
f 64//64 65//64 75//64 74//64
f 65//65 66//65 76//65 75//65
f 66//66 67//66 77//66 76//66
f 67//67 68//67 78//67 77//67
f 68//68 69//68 79//68 78//68
f 69//69 70//69 80//69 79//69
f 70//70 61//70 71//70 80//70
usemtl fir_needles
f 84//73 86//73 81//73
f 86//75 88//75 81//75
f 90//79 92//79 81//79
f 92//81 94//81 81//81
f 96//85 98//85 81//85
f 98//87 82//87 81//87
f 101//89 103//89 100//89
f 103//91 105//91 100//91
f 107//95 109//95 100//95
f 109//97 111//97 100//97
f 113//101 115//101 100//101
f 115//103 117//103 100//103
f 120//107 122//107 119//107
f 124//111 126//111 119//111
f 126//113 128//113 119//113
f 130//117 132//117 119//117
f 132//119 134//119 119//119
f 136//123 120//123 119//123
f 141//127 143//127 138//127
f 143//129 145//129 138//129
f 147//133 149//133 138//133
f 149//135 151//135 138//135
f 153//139 155//139 138//139
f 155//141 139//141 138//141
f 158//143 160//143 157//143
f 160//145 162//145 157//145
f 164//149 166//149 157//149
f 166//151 168//151 157//151
f 170//155 172//155 157//155
f 172//157 174//157 157//157
usemtl fir_needles_dark
f 82//71 84//71 81//71
f 84//72 82//72 83//72 85//72
f 86//74 84//74 85//74 87//74
f 88//76 86//76 87//76 89//76
f 88//77 90//77 81//77
f 90//78 88//78 89//78 91//78
f 92//80 90//80 91//80 93//80
f 94//82 92//82 93//82 95//82
f 94//83 96//83 81//83
f 96//84 94//84 95//84 97//84
f 98//86 96//86 97//86 99//86
f 82//88 98//88 99//88 83//88
f 103//90 101//90 102//90 104//90
f 105//92 103//92 104//92 106//92
f 105//93 107//93 100//93
f 107//94 105//94 106//94 108//94
f 109//96 107//96 108//96 110//96
f 111//98 109//98 110//98 112//98
f 111//99 113//99 100//99
f 113//100 111//100 112//100 114//100
f 115//102 113//102 114//102 116//102
f 117//104 115//104 116//104 118//104
f 117//105 101//105 100//105
f 101//106 117//106 118//106 102//106
f 122//108 120//108 121//108 123//108
f 122//109 124//109 119//109
f 124//110 122//110 123//110 125//110
f 126//112 124//112 125//112 127//112
f 128//114 126//114 127//114 129//114
f 128//115 130//115 119//115
f 130//116 128//116 129//116 131//116
f 132//118 130//118 131//118 133//118
f 134//120 132//120 133//120 135//120
f 134//121 136//121 119//121
f 136//122 134//122 135//122 137//122
f 120//124 136//124 137//124 121//124
f 139//125 141//125 138//125
f 141//126 139//126 140//126 142//126
f 143//128 141//128 142//128 144//128
f 145//130 143//130 144//130 146//130
f 145//131 147//131 138//131
f 147//132 145//132 146//132 148//132
f 149//134 147//134 148//134 150//134
f 151//136 149//136 150//136 152//136
f 151//137 153//137 138//137
f 153//138 151//138 152//138 154//138
f 155//140 153//140 154//140 156//140
f 139//142 155//142 156//142 140//142
f 160//144 158//144 159//144 161//144
f 162//146 160//146 161//146 163//146
f 162//147 164//147 157//147
f 164//148 162//148 163//148 165//148
f 166//150 164//150 165//150 167//150
f 168//152 166//152 167//152 169//152
f 168//153 170//153 157//153
f 170//154 168//154 169//154 171//154
f 172//156 170//156 171//156 173//156
f 174//158 172//158 173//158 175//158
f 174//159 158//159 157//159
f 158//160 174//160 175//160 159//160
